<svg width="36" height="36" viewBox="0 0 36 36" fill="none" xmlns="http://www.w3.org/2000/svg">
<rect x="0.5" y="0.5" width="35" height="35" rx="3.5" stroke="black"/>
<path d="M16.8573 15.7109H15.7144V22.5685H16.8573V15.7109Z" fill="black"/>
<path d="M20.286 15.7109H19.1431V22.5685H20.286V15.7109Z" fill="black"/>
<path d="M12.7855 13.4281V12.9281H12.2855H11.6426V12.7852H24.3576V12.9281H23.7147H23.2147V13.4281V24.8573C23.2147 25.0051 23.1638 25.1476 23.0718 25.2615V24.8573V13.4281V12.9281H22.5718H13.4284H12.9284V13.4281V24.8573V25.2615C12.8364 25.1476 12.7855 25.0051 12.7855 24.8573V13.4281ZM22.5718 25.3573H22.976C22.8621 25.4493 22.7196 25.5002 22.5718 25.5002H13.4284C13.2806 25.5002 13.1381 25.4493 13.0243 25.3573H13.4284H22.5718Z" fill="black" stroke="black"/>
<path d="M20.286 10H15.7144V11.1429H20.286V10Z" fill="black"/>
</svg>
