<svg width="17" height="13" viewBox="0 0 17 13" fill="none" xmlns="http://www.w3.org/2000/svg">
<path d="M10.5237 0.591929C9.38695 0.125607 8.11295 0.125607 6.97617 0.591929L1.62328 2.7877C0.762479 3.14081 0.538056 4.1365 0.949999 4.82468V8.29188C0.949999 8.58181 1.21863 8.81686 1.55 8.81686C1.88137 8.81686 2.15 8.58181 2.15 8.29188V5.61238L6.97624 7.59212C8.11303 8.05844 9.38703 8.05844 10.5238 7.59212L15.8767 5.39637C17.0411 4.91875 17.0411 3.26537 15.8767 2.78774L10.5237 0.591929Z" fill="white"/>
<path d="M3.14844 7.1875V9.78489C3.14844 10.4905 3.55124 11.1511 4.2567 11.493C5.43139 12.0621 7.31163 12.847 8.74843 12.847C10.1852 12.847 12.0655 12.0621 13.2402 11.493C13.9456 11.1511 14.3484 10.4905 14.3484 9.78489V7.18757L11.0316 8.54811C9.57211 9.1468 7.92483 9.1468 6.46529 8.54811L3.14844 7.1875Z" fill="white"/>
</svg>
